<svg id="Layer_1" data-name="Layer 1" xmlns="http://www.w3.org/2000/svg" xmlns:xlink="http://www.w3.org/1999/xlink" viewBox="0 0 800 800"><defs><style>.cls-1{fill:url(#linear-gradient);}.cls-2{fill:url(#linear-gradient-2);}</style><linearGradient id="linear-gradient" x1="182.7" y1="204.8" x2="654.7" y2="628.8" gradientUnits="userSpaceOnUse"><stop offset="0" stop-color="aqua"/><stop offset="0.43" stop-color="#18e0b3"/><stop offset="1" stop-color="#39b54a"/></linearGradient><linearGradient id="linear-gradient-2" x1="907.97" y1="-100.49" x2="1236.16" y2="194.32" gradientTransform="translate(-706.32 365.43) scale(1 4.05)" gradientUnits="userSpaceOnUse"><stop offset="0" stop-color="#39b54a" stop-opacity="0"/><stop offset="1" stop-color="#39b54a"/></linearGradient></defs><title>CliffordArt</title><rect class="cls-1" width="800" height="800"/><rect class="cls-2" x="-51.25" y="-50.94" width="808" height="1118.25" transform="translate(953.14 359.17) rotate(110.83)"/><path d="M576.58,532.47a18.4,18.4,0,0,1-7.21-4.15,34.17,34.17,0,0,1-6.45-8.42,126.26,126.26,0,0,1-6.83-14.37l-60.26-144h-4.47L456.79,442.4a180.07,180.07,0,0,1-30.05,47.89l-.18.21a106.64,106.64,0,0,1-18.85,17.19A70.61,70.61,0,0,1,386,517.85q-11.91,3.31-28.32,3.32a109.19,109.19,0,0,1-27.83-3.52,93.31,93.31,0,0,1-24.71-10.35,85.3,85.3,0,0,1-20.21-17,90.08,90.08,0,0,1-14.75-23.64q-11.52-26.55-11.52-62.3a232.09,232.09,0,0,1,3.51-42.29,149.84,149.84,0,0,1,10.16-33.69q12.11-27,32.62-39.94t47.07-13a96.15,96.15,0,0,1,29.3,4.3A73.36,73.36,0,0,1,406,293.24a90.85,90.85,0,0,1,19.83,23.63q8.69,14.46,14.74,34.57h6.06l-6.06-90h-6.83a31.09,31.09,0,0,1-6,13.18,12.92,12.92,0,0,1-10.45,5.18q-3.12.19-11.72-4.3-27.93-14.06-56.64-14.06a135,135,0,0,0-31.64,3.71A133.13,133.13,0,0,0,287.89,276a128.66,128.66,0,0,0-26,17.58,138.54,138.54,0,0,0-41.31,64.65,163.44,163.44,0,0,0-6.44,45.8q0,49.22,27,85.54c24,32.56,57.48,49.08,101.49,49.08H456.5v-4.72a68.68,68.68,0,0,1-10.34-1.47A19,19,0,0,1,440,530a7.36,7.36,0,0,1-2.88-3.19,9.85,9.85,0,0,1-.7-3.77q0-5.1,4.34-15.06l11.75-27.32h67L530,505.53q2.55,6.14,3.9,10.54a22.61,22.61,0,0,1,1.21,7.21,9.33,9.33,0,0,1-.83,4,8.22,8.22,0,0,1-2.81,3.19,16.68,16.68,0,0,1-5.42,2.3,43.94,43.94,0,0,1-8.56,1.15v4.72h68.31v-4.72A39.35,39.35,0,0,1,576.58,532.47ZM456.5,471.19l30.14-70,29.36,70Z"/></svg>